HIERARCHY
ROOT root
{
	OFFSET	0	13.1	24.9
	CHANNELS 6  Xposition Yposition Zposition Xrotation Yrotation Zrotation
	JOINT spine_1
	{
		OFFSET	0	9.99999	0
		CHANNELS 3  Xrotation Yrotation Zrotation
		JOINT spine_2
		{
			OFFSET	0	112	-10
			CHANNELS 3  Xrotation Yrotation Zrotation
			JOINT spine_3
			{
				OFFSET	0	206.5	19.3
				CHANNELS 3  Xrotation Yrotation Zrotation
				JOINT spine_4
				{
					OFFSET	0	110.4	14.6
					CHANNELS 3  Xrotation Yrotation Zrotation
					JOINT neck_1
					{
						OFFSET	0	71.8	-50.3
						CHANNELS 3  Xrotation Yrotation Zrotation
						JOINT neck_2
						{
							OFFSET	0	86.2	-25.8
							CHANNELS 3  Xrotation Yrotation Zrotation
							JOINT head_ee
							{
								OFFSET	0	179.8	-8.7
								CHANNELS 3  Xrotation Yrotation Zrotation
								End Site
								{
									OFFSET	1	0	0
								}
							}
						}
					}
					JOINT left_clavicle
					{
						OFFSET	-43.2	22.4	-70.8
						CHANNELS 3  Xrotation Yrotation Zrotation
						JOINT left_shoulder
						{
							OFFSET	-93.9	-5.79999	48.7
							CHANNELS 3  Xrotation Yrotation Zrotation
							JOINT left_elbow
							{
								OFFSET	-291.4	-30.8	15.2
								CHANNELS 3  Xrotation Yrotation Zrotation
								JOINT left_lowarm_twist
								{
									OFFSET	-110.7	-3.89999	13.6
									CHANNELS 3  Xrotation Yrotation Zrotation
									JOINT left_hand
									{
										OFFSET	-110.7	-3.89999	13.6
										CHANNELS 3  Xrotation Yrotation Zrotation
										JOINT left_ee
										{
											OFFSET	-80.8	-5.10001	12.1
											CHANNELS 3  Xrotation Yrotation Zrotation
											End Site
											{
												OFFSET	1	0	0
											}
										}
									}
								}
							}
						}
					}
					JOINT right_clavicle
					{
						OFFSET	43.2	22.4	-70.8
						CHANNELS 3  Xrotation Yrotation Zrotation
						JOINT right_shoulder
						{
							OFFSET	93.9	-5.79999	48.7
							CHANNELS 3  Xrotation Yrotation Zrotation
							JOINT right_elbow
							{
								OFFSET	291.4	-30.8	15.2
								CHANNELS 3  Xrotation Yrotation Zrotation
								JOINT right_lowarm_twist
								{
									OFFSET	110.7	-3.89999	13.6
									CHANNELS 3  Xrotation Yrotation Zrotation
									JOINT right_hand
									{
										OFFSET	110.7	-3.89999	13.6
										CHANNELS 3  Xrotation Yrotation Zrotation
										JOINT right_ee
										{
											OFFSET	80.8	-5.10001	12.1
											CHANNELS 3  Xrotation Yrotation Zrotation
											End Site
											{
												OFFSET	1	0	0
											}
										}
									}
								}
							}
						}
					}
				}
			}
		}
	}
	JOINT left_hip
	{
		OFFSET	-82.8	-127.5	0.300001
		CHANNELS 3  Xrotation Yrotation Zrotation
		JOINT left_knee
		{
			OFFSET	-28.2	-396.7	2.2
			CHANNELS 3  Xrotation Yrotation Zrotation
			JOINT left_ankle
			{
				OFFSET	-11.7	-411.3	35.4
				CHANNELS 3  Xrotation Yrotation Zrotation
				JOINT left_toes
				{
					OFFSET	0	-60	-88.6
					CHANNELS 3  Xrotation Yrotation Zrotation
					JOINT left_foot_ee
					{
						OFFSET	-22.5	-16.5	-42.2
						CHANNELS 3  Xrotation Yrotation Zrotation
						End Site
						{
							OFFSET	1	0	0
						}
					}
				}
			}
		}
	}
	JOINT right_hip
	{
		OFFSET	82.8	-127.5	0.300001
		CHANNELS 3  Xrotation Yrotation Zrotation
		JOINT right_knee
		{
			OFFSET	28.2	-396.7	2.2
			CHANNELS 3  Xrotation Yrotation Zrotation
			JOINT right_ankle
			{
				OFFSET	11.7	-411.3	35.4
				CHANNELS 3  Xrotation Yrotation Zrotation
				JOINT right_toes
				{
					OFFSET	0	-60	-88.6
					CHANNELS 3  Xrotation Yrotation Zrotation
					JOINT right_foot_ee
					{
						OFFSET	22.5	-16.5	-42.2
						CHANNELS 3  Xrotation Yrotation Zrotation
						End Site
						{
							OFFSET	1	0	0
						}
					}
				}
			}
		}
	}
}
MOTION
Frames: 8
Frame Time: 0.02
3670.86 626.255 -436.244 -39.6516 27.9486 19.4496 12.3641 0.755457 2.75554 12.3682 0.578654 2.79798 12.3841 0.591627 2.79527 12.3747 1.02551 2.6669 -13.6387 6.61219 -9.73921 -13.6122 18.5971 -7.2495 -0.0 0.0 -0.0 -2.44694 22.1948 -0.865659 -16.9118 -28.0269 57.0281 3.35461 -58.9481 1.89631 -6.52328 -0.274998 0.786809 -1.3537 -9.70171 -13.378 -0.0 0.0 -0.0 11.6534 0.558225 -23.1601 87.1102 -65.6408 31.4818 0.348618 9.79826 -0.0298818 71.3066 2.87706 8.04585 -0.204533 27.1068 12.8085 0.0 0.0 0.0 7.68151 61.9157 20.4477 -10.8565 0.292554 1.63794 40.1256 -5.67752 -4.95288 -14.6572 0.0 0.0 -0.0 0.0 -0.0 75.2754 25.4404 -13.4944 -16.0595 -0.321747 -2.43545 -6.92264 11.028 -1.09094 -37.6338 0.0 0.0 0.0 0.0 0.0 
3639.78 625.855 -446.659 -39.1216 28.3527 19.6106 12.356 0.783992 2.40186 12.359 0.629614 2.44685 12.3766 0.640605 2.44399 12.3697 1.01845 2.31226 -13.045 5.3011 -10.2971 -12.9117 16.5349 -8.29263 -0.0 0.0 -0.0 -2.71638 23.918 -0.919044 -19.2743 -29.807 57.9708 3.3556 -58.9555 1.89716 -11.983 -0.57286 1.4182 -1.1026 -12.1737 -12.7038 -0.0 0.0 -0.0 12.134 6.94164 -24.5297 90.1335 -65.6974 33.1399 0.280572 7.91288 -0.0194053 71.0648 2.8516 8.02812 -0.51012 28.4434 15.3439 0.0 0.0 0.0 7.43997 56.3309 20.2226 -11.2946 0.297803 1.70497 40.1876 -3.81703 -4.93101 -7.12565 0.0 0.0 -0.0 0.0 -0.0 74.996 26.6658 -13.4296 -20.4043 -0.290613 -3.10119 -0.932859 4.46829 -0.140367 -33.6857 0.0 0.0 0.0 0.0 0.0 
3627.2 631.606 -461.656 -39.1583 29.1527 19.3125 12.268 0.881496 2.45243 12.271 0.723706 2.50351 12.2931 0.731408 2.50127 12.2861 1.11715 2.35449 -14.9885 7.69099 -9.57161 -15.0955 20.379 -6.48743 -0.0 0.0 -0.0 -2.71548 23.4049 -1.0152 -19.6478 -29.0992 59.3737 2.99063 -55.9691 1.58937 -16.3632 -0.854567 1.90272 -1.41473 -10.5209 -14.1564 -0.0 0.0 -0.0 12.4369 7.55837 -25.2269 88.2924 -67.2152 28.3583 0.297197 8.37525 -0.0217602 72.4238 2.99568 8.12637 -0.574352 28.168 15.6578 0.0 0.0 0.0 6.86224 53.3678 20.6465 -10.6209 0.289518 1.60192 39.5606 -3.76858 -4.87634 -7.63145 0.0 0.0 -0.0 0.0 -0.0 72.7556 26.7441 -12.5453 -18.9432 -0.306717 -2.87759 -3.95112 1.014 -0.591424 -27.4575 0.0 0.0 0.0 0.0 0.0 
3608.76 631.5 -476.639 -38.4874 29.081 18.3913 11.9402 0.875699 2.75696 11.9442 0.698563 2.80705 11.9666 0.691259 2.80885 11.9574 1.12604 2.66459 -14.1269 6.13781 -10.1041 -14.0794 17.8553 -7.67299 -0.0 0.0 -0.0 -2.51034 24.4678 -0.537921 -21.6714 -26.5949 57.3859 2.96647 -55.7534 1.56938 -20.3099 -1.13957 2.31995 0.216218 -18.9991 -6.63735 -0.0 0.0 -0.0 12.4127 10.4681 -25.2135 88.3633 -70.0115 28.6621 0.308193 8.6805 -0.023391 74.7283 3.24519 8.28512 -1.25242 20.3721 17.1462 0.0 0.0 0.0 9.89851 51.4089 17.2732 -16.7346 0.320224 2.539 38.5912 -4.63241 -4.80287 -1.73399 0.0 0.0 -0.0 0.0 -0.0 70.2263 26.2027 -12.1359 -18.2064 -0.312673 -2.7647 -2.75655 -0.28953 -0.410111 -25.8112 0.0 0.0 0.0 0.0 0.0 
3594.46 632.654 -486.878 -35.9347 29.9228 16.478 11.094 1.01652 2.90299 11.0983 0.829821 2.96172 11.1293 0.778904 2.9755 11.1191 1.23887 2.81535 -13.5421 7.28445 -10.4712 -13.5164 20.3385 -7.75911 -0.0 0.0 -0.0 -1.99377 23.6322 0.0145377 -19.5881 -21.3273 60.319 2.81139 -54.31 1.44228 -27.0281 -1.68871 2.98225 0.0744059 -23.0047 -9.2771 -0.0 0.0 -0.0 12.4997 14.0589 -25.3718 87.6294 -72.969 27.428 0.348225 9.78744 -0.029815 75.26 3.30365 8.32032 -1.43704 20.7785 18.5847 0.0 0.0 0.0 9.56333 48.5364 16.1389 -20.1286 0.294088 3.05903 38.9151 -6.18687 -4.85579 -0.0273171 0.0 0.0 -0.0 0.0 -0.0 67.9918 25.5369 -11.5195 -22.714 -0.253539 -3.45365 2.14496 -1.77958 0.314271 -24.7993 0.0 0.0 0.0 0.0 0.0 
3583.94 637.372 -493.429 -35.9887 30.5281 16.1565 10.9607 0.810205 2.93995 10.9653 0.621572 2.98549 10.9855 0.562473 2.99718 10.9744 1.02857 2.8709 -14.3891 6.93656 -10.1318 -14.3971 19.3561 -7.39134 -0.0 0.0 -0.0 -2.1131 23.7015 -0.136525 -20.5069 -20.9563 60.9593 2.74316 -53.6409 1.3871 -29.3391 -1.89516 3.19474 0.258434 -24.7112 -8.78347 -0.0 0.0 -0.0 12.9493 15.2388 -26.3772 87.2486 -72.8717 24.5089 0.36934 10.3684 -0.03351 77.1176 3.51042 8.43901 -1.39033 20.1558 18.012 0.0 0.0 0.0 13.2165 47.0491 13.4804 -24.5433 0.214111 3.73158 34.7856 -7.78742 -4.49889 7.65947 -0.0 -0.0 -0.0 0.0 -0.0 66.4018 23.034 -9.81955 -23.2165 -0.243594 -3.53011 1.55016 0.0917042 0.228464 -18.3704 0.0 0.0 0.0 0.0 0.0 
3561.59 632.776 -506.228 -34.159 31.4453 15.1353 10.5508 0.676318 2.822 10.5551 0.495451 2.85928 10.5691 0.417806 2.87164 10.5587 0.865912 2.76975 -14.431 8.30812 -10.9066 -14.5016 22.4275 -7.66374 -0.0 0.0 -0.0 -2.52154 23.7424 -0.686429 -21.4929 -19.6816 62.8565 2.6135 -52.3083 1.28357 -32.4898 -2.19014 3.47079 0.361395 -27.1389 -9.13811 -0.0 0.0 -0.0 13.3034 17.809 -27.0916 87.3903 -72.8844 23.6387 0.335979 9.44955 -0.0277688 77.2195 3.52187 8.44533 -1.71752 20.5341 20.4423 0.0 0.0 0.0 16.1519 37.4551 12.3767 -30.9432 0.00678462 4.69139 35.4834 0.116553 -4.46479 9.0348 -0.0 -0.0 -0.0 0.0 -0.0 65.4274 22.6332 -9.35203 -28.9795 -0.0817991 -4.39937 5.58172 -3.70411 0.807167 -14.029 0.0 0.0 0.0 0.0 0.0 
3542.29 633.993 -524.808 -33.0692 32.1431 15.0299 10.1089 0.592964 2.63357 10.1127 0.424242 2.66594 10.1235 0.330912 2.67911 10.1143 0.749734 2.59333 -14.1473 8.93567 -8.59228 -14.3296 22.2545 -5.28247 -0.0 0.0 -0.0 -2.43508 22.678 -0.761432 -21.673 -18.991 63.9286 2.03731 -45.2578 0.849332 -36.2718 -2.56368 3.78025 0.732103 -28.6911 -7.41799 -0.0 0.0 -0.0 13.6753 20.9488 -27.7546 84.2694 -74.3918 20.056 0.332461 9.35238 -0.0271943 78.5234 3.66938 8.52435 -1.19706 18.9377 16.1835 0.0 0.0 0.0 17.4512 36.0939 9.48927 -35.8474 -0.223932 5.40822 29.602 -2.72863 -3.89205 15.087 -0.0 -0.0 -0.0 0.0 -0.0 63.1946 21.5327 -9.32153 -30.4683 -0.0258432 -4.621 7.67616 -6.79671 1.09982 -9.83791 0.0 0.0 0.0 0.0 0.0 
